<?xml version="1.0" encoding="iso-8859-1"?>
<!-- Generator: Adobe Illustrator 19.0.0, SVG Export Plug-In . SVG Version: 6.00 Build 0)  -->
<svg version="1.1" id="Capa_1" xmlns="http://www.w3.org/2000/svg" xmlns:xlink="http://www.w3.org/1999/xlink" x="0px" y="0px"
	 viewBox="0 0 512 512" style="enable-background:new 0 0 512 512;" xml:space="preserve">
<path style="fill:#7C899B;" d="M432,272H264v-64c0-4.418-3.582-8-8-8s-8,3.582-8,8v64H80c-4.418,0-8,3.582-8,8v88
	c0,4.418,3.582,8,8,8s8-3.582,8-8v-80h160v80c0,4.418,3.582,8,8,8s8-3.582,8-8v-80h160v80c0,4.418,3.582,8,8,8s8-3.582,8-8v-88
	C440,275.582,436.418,272,432,272z"/>
<path style="fill:#3CBDE8;" d="M360,88c-8.741,0-17.231,1.751-25.059,5.085C335.646,88.797,336,84.43,336,80
	c0-44.112-35.888-80-80-80c-42.823,0-77.895,33.816-79.909,76.149C168.393,73.416,160.244,72,152,72c-39.701,0-72,32.299-72,72
	s32.299,72,72,72h208c35.29,0,64-28.71,64-64S395.29,88,360,88z"/>
<path style="fill:#2C9DD4;" d="M368,200H160c-39.701,0-72-32.299-72-72c0-8.366,1.45-16.397,4.085-23.873
	C84.458,115.551,80,129.263,80,144c0,39.701,32.299,72,72,72h208c28.206,0,52.191-18.349,60.691-43.731
	C409.135,189.005,389.831,200,368,200z"/>
<path style="fill:#F7C14D;" d="M256,248c-17.645,0-32,14.355-32,32s14.355,32,32,32s32-14.355,32-32S273.645,248,256,248z"/>
<g>
	<path style="fill:#FFDB66;" d="M256,264c-8.823,0-16,7.177-16,16s7.177,16,16,16s16-7.177,16-16S264.823,264,256,264z"/>
	<path style="fill:#FFDB66;" d="M144,360H16c-8.822,0-16,7.178-16,16v120c0,8.822,7.178,16,16,16h128c8.822,0,16-7.178,16-16V376
		C160,367.178,152.822,360,144,360z"/>
</g>
<path style="fill:#F7C14D;" d="M16,488V360c-8.822,0-16,7.178-16,16v120c0,8.822,7.178,16,16,16h128c8.822,0,16-7.178,16-16H24
	C19.582,496,16,492.418,16,488z"/>
<path style="fill:#69788D;" d="M136,400H24c-4.418,0-8,3.582-8,8v80c0,4.418,3.582,8,8,8h112c4.418,0,8-3.582,8-8v-80
	C144,403.582,140.418,400,136,400z"/>
<g>
	<path style="fill:#56677E;" d="M24,400c-4.418,0-8,3.582-8,8v72l80-80H24z"/>
	<path style="fill:#56677E;" d="M136,400h-12.5l-96,96H69l75-75v-13C144,403.582,140.418,400,136,400z"/>
	<path style="fill:#56677E;" d="M102,496h34c4.418,0,8-3.582,8-8v-34L102,496z"/>
</g>
<g>
	<path style="fill:#F09B24;" d="M88,392H72c-4.418,0-8-3.582-8-8s3.582-8,8-8h16c4.418,0,8,3.582,8,8S92.418,392,88,392z"/>
	<path style="fill:#F09B24;" d="M120,392h-8c-4.418,0-8-3.582-8-8s3.582-8,8-8h8c4.418,0,8,3.582,8,8S124.418,392,120,392z"/>
	<path style="fill:#F09B24;" d="M48,392h-8c-4.418,0-8-3.582-8-8s3.582-8,8-8h8c4.418,0,8,3.582,8,8S52.418,392,48,392z"/>
</g>
<path style="fill:#FFDB66;" d="M320,360H192c-8.822,0-16,7.178-16,16v120c0,8.822,7.178,16,16,16h128c8.822,0,16-7.178,16-16V376
	C336,367.178,328.822,360,320,360z"/>
<path style="fill:#F7C14D;" d="M192,488V360c-8.822,0-16,7.178-16,16v120c0,8.822,7.178,16,16,16h128c8.822,0,16-7.178,16-16H200
	C195.582,496,192,492.418,192,488z"/>
<path style="fill:#69788D;" d="M312,400H200c-4.418,0-8,3.582-8,8v80c0,4.418,3.582,8,8,8h112c4.418,0,8-3.582,8-8v-80
	C320,403.582,316.418,400,312,400z"/>
<g>
	<path style="fill:#56677E;" d="M200,400c-4.418,0-8,3.582-8,8v72l80-80H200z"/>
	<path style="fill:#56677E;" d="M312,400h-12.5l-96,96H245l75-75v-13C320,403.582,316.418,400,312,400z"/>
	<path style="fill:#56677E;" d="M278,496h34c4.418,0,8-3.582,8-8v-34L278,496z"/>
</g>
<g>
	<path style="fill:#F09B24;" d="M264,392h-16c-4.418,0-8-3.582-8-8s3.582-8,8-8h16c4.418,0,8,3.582,8,8S268.418,392,264,392z"/>
	<path style="fill:#F09B24;" d="M296,392h-8c-4.418,0-8-3.582-8-8s3.582-8,8-8h8c4.418,0,8,3.582,8,8S300.418,392,296,392z"/>
	<path style="fill:#F09B24;" d="M224,392h-8c-4.418,0-8-3.582-8-8s3.582-8,8-8h8c4.418,0,8,3.582,8,8S228.418,392,224,392z"/>
</g>
<path style="fill:#FFDB66;" d="M496,360H368c-8.822,0-16,7.178-16,16v120c0,8.822,7.178,16,16,16h128c8.822,0,16-7.178,16-16V376
	C512,367.178,504.822,360,496,360z"/>
<path style="fill:#F7C14D;" d="M368,488V360c-8.822,0-16,7.178-16,16v120c0,8.822,7.178,16,16,16h128c8.822,0,16-7.178,16-16H376
	C371.582,496,368,492.418,368,488z"/>
<path style="fill:#69788D;" d="M488,400H376c-4.418,0-8,3.582-8,8v80c0,4.418,3.582,8,8,8h112c4.418,0,8-3.582,8-8v-80
	C496,403.582,492.418,400,488,400z"/>
<g>
	<path style="fill:#56677E;" d="M376,400c-4.418,0-8,3.582-8,8v72l80-80H376z"/>
	<path style="fill:#56677E;" d="M488,400h-12.5l-96,96H421l75-75v-13C496,403.582,492.418,400,488,400z"/>
	<path style="fill:#56677E;" d="M454,496h34c4.418,0,8-3.582,8-8v-34L454,496z"/>
</g>
<g>
	<path style="fill:#F09B24;" d="M440,392h-16c-4.418,0-8-3.582-8-8s3.582-8,8-8h16c4.418,0,8,3.582,8,8S444.418,392,440,392z"/>
	<path style="fill:#F09B24;" d="M472,392h-8c-4.418,0-8-3.582-8-8s3.582-8,8-8h8c4.418,0,8,3.582,8,8S476.418,392,472,392z"/>
	<path style="fill:#F09B24;" d="M400,392h-8c-4.418,0-8-3.582-8-8s3.582-8,8-8h8c4.418,0,8,3.582,8,8S404.418,392,400,392z"/>
</g>
<g>
</g>
<g>
</g>
<g>
</g>
<g>
</g>
<g>
</g>
<g>
</g>
<g>
</g>
<g>
</g>
<g>
</g>
<g>
</g>
<g>
</g>
<g>
</g>
<g>
</g>
<g>
</g>
<g>
</g>
</svg>
