<?xml version="1.0" encoding="iso-8859-1"?>
<!-- Generator: Adobe Illustrator 19.0.0, SVG Export Plug-In . SVG Version: 6.00 Build 0)  -->
<svg version="1.1" id="Capa_1" xmlns="http://www.w3.org/2000/svg" xmlns:xlink="http://www.w3.org/1999/xlink" x="0px" y="0px"
	 viewBox="0 0 512 512" style="enable-background:new 0 0 512 512;" xml:space="preserve">
<path style="fill:#8E9AA9;" d="M432,304H264v-64c0-4.418-3.582-8-8-8s-8,3.582-8,8v64H80c-4.418,0-8,3.582-8,8v56
	c0,4.418,3.582,8,8,8s8-3.582,8-8v-48h160v48c0,4.418,3.582,8,8,8s8-3.582,8-8v-48h160v48c0,4.418,3.582,8,8,8s8-3.582,8-8v-56
	C440,307.582,436.418,304,432,304z"/>
<path style="fill:#7CD9F2;" d="M144,360H16c-8.822,0-16,7.178-16,16v120c0,8.822,7.178,16,16,16h128c8.822,0,16-7.178,16-16V376
	C160,367.178,152.822,360,144,360z"/>
<path style="fill:#3CBDE8;" d="M16,488V360c-8.822,0-16,7.178-16,16v120c0,8.822,7.178,16,16,16h128c8.822,0,16-7.178,16-16H24
	C19.582,496,16,492.418,16,488z"/>
<path style="fill:#69788D;" d="M136,400H24c-4.418,0-8,3.582-8,8v80c0,4.418,3.582,8,8,8h112c4.418,0,8-3.582,8-8v-80
	C144,403.582,140.418,400,136,400z"/>
<g>
	<path style="fill:#56677E;" d="M24,400c-4.418,0-8,3.582-8,8v72l80-80H24z"/>
	<path style="fill:#56677E;" d="M102,496h34c4.418,0,8-3.582,8-8v-34L102,496z"/>
</g>
<g>
	<path style="fill:#2C9DD4;" d="M88,392H72c-4.418,0-8-3.582-8-8s3.582-8,8-8h16c4.418,0,8,3.582,8,8S92.418,392,88,392z"/>
	<path style="fill:#2C9DD4;" d="M120,392h-8c-4.418,0-8-3.582-8-8s3.582-8,8-8h8c4.418,0,8,3.582,8,8S124.418,392,120,392z"/>
	<path style="fill:#2C9DD4;" d="M48,392h-8c-4.418,0-8-3.582-8-8s3.582-8,8-8h8c4.418,0,8,3.582,8,8S52.418,392,48,392z"/>
</g>
<path style="fill:#7CD9F2;" d="M320,360H192c-8.822,0-16,7.178-16,16v120c0,8.822,7.178,16,16,16h128c8.822,0,16-7.178,16-16V376
	C336,367.178,328.822,360,320,360z"/>
<path style="fill:#3CBDE8;" d="M192,488V360c-8.822,0-16,7.178-16,16v120c0,8.822,7.178,16,16,16h128c8.822,0,16-7.178,16-16H200
	C195.582,496,192,492.418,192,488z"/>
<path style="fill:#69788D;" d="M312,400H200c-4.418,0-8,3.582-8,8v80c0,4.418,3.582,8,8,8h112c4.418,0,8-3.582,8-8v-80
	C320,403.582,316.418,400,312,400z"/>
<g>
	<path style="fill:#56677E;" d="M200,400c-4.418,0-8,3.582-8,8v72l80-80H200z"/>
	<path style="fill:#56677E;" d="M278,496h34c4.418,0,8-3.582,8-8v-34L278,496z"/>
</g>
<g>
	<path style="fill:#2C9DD4;" d="M264,392h-16c-4.418,0-8-3.582-8-8s3.582-8,8-8h16c4.418,0,8,3.582,8,8S268.418,392,264,392z"/>
	<path style="fill:#2C9DD4;" d="M296,392h-8c-4.418,0-8-3.582-8-8s3.582-8,8-8h8c4.418,0,8,3.582,8,8S300.418,392,296,392z"/>
	<path style="fill:#2C9DD4;" d="M224,392h-8c-4.418,0-8-3.582-8-8s3.582-8,8-8h8c4.418,0,8,3.582,8,8S228.418,392,224,392z"/>
</g>
<path style="fill:#7CD9F2;" d="M496,360H368c-8.822,0-16,7.178-16,16v120c0,8.822,7.178,16,16,16h128c8.822,0,16-7.178,16-16V376
	C512,367.178,504.822,360,496,360z"/>
<path style="fill:#3CBDE8;" d="M368,488V360c-8.822,0-16,7.178-16,16v120c0,8.822,7.178,16,16,16h128c8.822,0,16-7.178,16-16H376
	C371.582,496,368,492.418,368,488z"/>
<path style="fill:#69788D;" d="M488,400H376c-4.418,0-8,3.582-8,8v80c0,4.418,3.582,8,8,8h112c4.418,0,8-3.582,8-8v-80
	C496,403.582,492.418,400,488,400z"/>
<g>
	<path style="fill:#56677E;" d="M376,400c-4.418,0-8,3.582-8,8v72l80-80H376z"/>
	<path style="fill:#56677E;" d="M454,496h34c4.418,0,8-3.582,8-8v-34L454,496z"/>
</g>
<g>
	<path style="fill:#2C9DD4;" d="M440,392h-16c-4.418,0-8-3.582-8-8s3.582-8,8-8h16c4.418,0,8,3.582,8,8S444.418,392,440,392z"/>
	<path style="fill:#2C9DD4;" d="M472,392h-8c-4.418,0-8-3.582-8-8s3.582-8,8-8h8c4.418,0,8,3.582,8,8S476.418,392,472,392z"/>
	<path style="fill:#2C9DD4;" d="M400,392h-8c-4.418,0-8-3.582-8-8s3.582-8,8-8h8c4.418,0,8,3.582,8,8S404.418,392,400,392z"/>
</g>
<path style="fill:#69788D;" d="M288,184h-64c-4.418,0-8,3.582-8,8v48c0,4.418,3.582,8,8,8h64c4.418,0,8-3.582,8-8v-48
	C296,187.582,292.418,184,288,184z"/>
<path style="fill:#56677E;" d="M296,192c0-4.418-3.582-8-8-8h-64c-4.418,0-8,3.582-8,8v16h80V192z"/>
<path style="fill:#435670;" d="M312,248H200c-4.418,0-8-3.582-8-8s3.582-8,8-8h112c4.418,0,8,3.582,8,8S316.418,248,312,248z"/>
<path style="fill:#ECEEF1;" d="M368,0H144c-8.822,0-16,7.178-16,16v168c0,8.822,7.178,16,16,16h224c8.822,0,16-7.178,16-16V16
	C384,7.178,376.822,0,368,0z"/>
<g>
	<path style="fill:#D9DDE2;" d="M271.5,200H368c8.822,0,16-7.178,16-16V87.5L271.5,200z"/>
	<path style="fill:#D9DDE2;" d="M144,0c-8.822,0-16,7.178-16,16v70.5L214.5,0H144z"/>
	<path style="fill:#D9DDE2;" d="M278,0L128,150v34c0,1.519,0.226,2.983,0.624,4.376L317,0H278z"/>
</g>
<path style="fill:#8E9AA9;" d="M128,152v32c0,8.822,7.178,16,16,16h224c8.822,0,16-7.178,16-16v-32H128z"/>
<path style="fill:#435670;" d="M264,184h-16c-4.418,0-8-3.582-8-8s3.582-8,8-8h16c4.418,0,8,3.582,8,8S268.418,184,264,184z"/>
<g>
</g>
<g>
</g>
<g>
</g>
<g>
</g>
<g>
</g>
<g>
</g>
<g>
</g>
<g>
</g>
<g>
</g>
<g>
</g>
<g>
</g>
<g>
</g>
<g>
</g>
<g>
</g>
<g>
</g>
</svg>
