<?xml version="1.0" ?><svg width="50" height="50" style="enable-background:new 0 0 64 64;" version="1.1" viewBox="0 0 64 64" xml:space="preserve" xmlns="http://www.w3.org/2000/svg" xmlns:xlink="http://www.w3.org/1999/xlink"><style type="text/css">
	.st0{fill:#CCCCCC;}
</style><g id="GUIDES_64"/><g id="Layer_3"/><g id="Layer_2"><path class="st0" d="M56.6,32.4h-2.9c-1.9,0-3.4,1.5-3.4,3.4v7.9c0,1.4-0.9,2.7-2.3,3c-1.8,0.3-3.4-1.1-3.4-2.8v-7.4   c0-0.6-0.6-1.1-1.2-0.9l-3.1,1c-1,0.3-2,0.2-2.9-0.2l-1.1-0.6c-0.6-0.3-1.3,0.1-1.3,0.8v6.8c0,6.9,5.4,12.9,12.3,13   C54.2,56.6,60,51,60,43.9v-8.1C60,34,58.5,32.4,56.6,32.4z"/><path class="st0" d="M15.5,56.4c7.4,0.6,13.4-5.2,13.4-12.5l0.2-8.7V24.7c0-1.4,0.9-2.7,2.3-3c1.8-0.3,3.4,1.1,3.4,2.8v1.4   c0,0.9,0.5,1.8,1.3,2.2l1.6,0.8c0.6,0.3,1.2,0.3,1.8,0.1l3.2-1.1c1-0.3,1.7-1.3,1.7-2.3v-1.2c0-7.3-6.3-13.2-13.8-12.5   c-6.5,0.6-11.3,6.4-11.3,12.9v10.3v8.5c0,1.4-0.9,2.7-2.3,3c-1.8,0.3-3.4-1.1-3.4-2.8v-4.3c0-1.8-1.4-3.2-3.2-3.2H7.2   c-1.8,0-3.2,1.4-3.2,3.2v3.9C4,50.1,8.9,55.9,15.5,56.4z"/></g></svg>